<?xml version="1.0" encoding="UTF-8"?>
<svg version="1.1" xmlns="http://www.w3.org/2000/svg" width="819" height="819">
<path d="M0 0 C270.27 0 540.54 0 819 0 C819 270.27 819 540.54 819 819 C548.73 819 278.46 819 0 819 C0 548.73 0 278.46 0 0 Z " fill="#101117" transform="translate(0,0)"/>
<path d="M0 0 C4.62011869 0.57604448 7.61672387 0.99014174 11.3125 3.875 C15.9306617 7.18733666 20.50920341 8.69321334 26 10 C26 10.66 26 11.32 26 12 C28.475 12.495 28.475 12.495 31 13 C31 13.66 31 14.32 31 15 C33.31 15.33 35.62 15.66 38 16 C38 16.66 38 17.32 38 18 C39.98 18 41.96 18 44 18 C44 18.66 44 19.32 44 20 C44.68964844 20.10957031 45.37929687 20.21914062 46.08984375 20.33203125 C52.29405716 21.37883269 58.09957328 22.81465677 64 25 C64 25.66 64 26.32 64 27 C66.64 27.33 69.28 27.66 72 28 C72 28.66 72 29.32 72 30 C73.98 30 75.96 30 78 30 C78 30.66 78 31.32 78 32 C79.21236328 32.29003906 79.21236328 32.29003906 80.44921875 32.5859375 C81.51785156 32.84632812 82.58648437 33.10671875 83.6875 33.375 C85.27111328 33.75785156 85.27111328 33.75785156 86.88671875 34.1484375 C89.70406766 34.91905489 92.31668325 35.85498543 95 37 C95 37.66 95 38.32 95 39 C95.639375 39.103125 96.27875 39.20625 96.9375 39.3125 C101.06477326 40.23903073 105.00642949 41.61660629 109 43 C109 43.66 109 44.32 109 45 C112.3 45.66 115.6 46.32 119 47 C119 47.66 119 48.32 119 49 C124.445 49.495 124.445 49.495 130 50 C130 50.66 130 51.32 130 52 C130.66 52.103125 131.32 52.20625 132 52.3125 C135.83841009 53.19213564 139.33096691 54.56969896 143 56 C143 56.66 143 57.32 143 58 C143.7425 57.95875 144.485 57.9175 145.25 57.875 C148.08758952 58.00398134 149.58773938 58.57051222 152 60 C152 60.66 152 61.32 152 62 C152.99 62.185625 152.99 62.185625 154 62.375 C157.69698583 63.14520538 161.34005942 64.06950663 165 65 C165 65.66 165 66.32 165 67 C167.31 67.33 169.62 67.66 172 68 C172 68.66 172 69.32 172 70 C172.825 70.103125 173.65 70.20625 174.5 70.3125 C178.59289012 71.11646056 182.12540225 72.46352158 186 74 C186 74.66 186 75.32 186 76 C187.30324219 76.29003906 187.30324219 76.29003906 188.6328125 76.5859375 C189.78523437 76.84632813 190.93765625 77.10671875 192.125 77.375 C193.26195312 77.63023437 194.39890625 77.88546875 195.5703125 78.1484375 C198.78398288 78.94636477 201.87566034 79.90790559 205 81 C205 81.99 205 82.98 205 84 C206.5159375 84.185625 206.5159375 84.185625 208.0625 84.375 C211.87937612 84.98085335 215.31500112 85.87193912 219 87 C219 87.66 219 88.32 219 89 C219.763125 89.144375 220.52625 89.28875 221.3125 89.4375 C224 90 224 90 227 91 C227 91.66 227 92.32 227 93 C228.2375 93.12375 229.475 93.2475 230.75 93.375 C233.8762197 93.75746305 236.28879237 94.30549523 239 96 C239 96.66 239 97.32 239 98 C239.7425 98.144375 240.485 98.28875 241.25 98.4375 C243.52027739 98.90187492 245.75759479 99.41863569 248 100 C248 100.66 248 101.32 248 102 C249.134375 102.144375 250.26875 102.28875 251.4375 102.4375 C255 103 255 103 256 104 C257.093125 104.144375 258.18625 104.28875 259.3125 104.4375 C262.44101199 104.91473064 264.34101141 105.40460685 267 107 C267 107.66 267 108.32 267 109 C267.65355469 109.10183594 268.30710937 109.20367187 268.98046875 109.30859375 C272.90807673 110.2079296 276.55780849 111.61632302 280.3125 113.0625 C281.05306641 113.34416016 281.79363281 113.62582031 282.55664062 113.91601562 C284.37242655 114.60718575 286.18639899 115.30311689 288 116 C288 116.66 288 117.32 288 118 C291.96 118.495 291.96 118.495 296 119 C296 119.66 296 120.32 296 121 C297.65 121 299.3 121 301 121 C301 121.66 301 122.32 301 123 C302.32 123 303.64 123 305 123 C305 123.66 305 124.32 305 125 C312.59066503 127.6174707 320.27082172 129.83407095 328 132 C328 132.66 328 133.32 328 134 C329.0209375 134.1546875 329.0209375 134.1546875 330.0625 134.3125 C332.87281139 134.97023245 335.34358144 135.93844876 337.9765625 137.10546875 C346.70047186 141.01348963 346.70047186 141.01348963 356 143 C356 143.66 356 144.32 356 145 C357.5778125 145.185625 357.5778125 145.185625 359.1875 145.375 C362.45958771 145.91140782 365.00536076 146.63880035 368 148 C368 148.66 368 149.32 368 150 C368.81984375 150.18175781 369.6396875 150.36351562 370.484375 150.55078125 C371.56203125 150.80214844 372.6396875 151.05351562 373.75 151.3125 C374.81734375 151.55613281 375.8846875 151.79976562 376.984375 152.05078125 C379.98375961 152.99488806 381.57132191 154.07585381 384 156 C385.62398527 156.7182504 387.27200342 157.38409988 388.9375 158 C391.6637294 159.04214874 393.97571606 159.98443337 396.4375 161.5625 C399.03101527 163.01739881 401.19148341 163.64293167 404.0625 164.375 C411.31490886 166.24407718 418.08259927 169.10378245 424.81640625 172.36328125 C431.15396943 175.41937502 437.01821154 177.09520343 444 178 C444 178.66 444 179.32 444 180 C445.65 180 447.3 180 449 180 C449 180.66 449 181.32 449 182 C449.99 182 450.98 182 452 182 C452 182.66 452 183.32 452 184 C453.0725 184.04125 454.145 184.0825 455.25 184.125 C460.48343993 184.74179828 464.67867714 187.1532768 469.265625 189.625 C471.57041215 190.78397868 473.48494763 191.52094241 476 192 C476 192.66 476 193.32 476 194 C477.98 194 479.96 194 482 194 C482 194.66 482 195.32 482 196 C482.845625 195.9175 483.69125 195.835 484.5625 195.75 C489.03634062 196.07537023 491.24893952 197.59932129 495 200 C495 200.66 495 201.32 495 202 C496.65 202 498.3 202 500 202 C500 202.66 500 203.32 500 204 C500.80824219 204.03738281 501.61648438 204.07476562 502.44921875 204.11328125 C504.05216797 204.21189453 504.05216797 204.21189453 505.6875 204.3125 C506.74324219 204.37050781 507.79898437 204.42851562 508.88671875 204.48828125 C512.25895644 205.04256373 514.27854581 205.95512255 517 208 C517 208.66 517 209.32 517 210 C518.65 210 520.3 210 522 210 C522 210.66 522 211.32 522 212 C522.845625 212.268125 523.69125 212.53625 524.5625 212.8125 C528.13854067 214.0478595 531.53860908 215.476988 535 217 C535 217.66 535 218.32 535 219 C535.556875 219.02578125 536.11375 219.0515625 536.6875 219.078125 C541.84187125 219.46122016 545.39864714 220.52589781 549.890625 223.0234375 C553.05312362 224.48755723 556.30883706 224.90951246 559.72265625 225.50390625 C562.5939573 226.12938692 564.70722468 227.16577974 567 229 C567 229.66 567 230.32 567 231 C567.61488281 231.13277344 568.22976563 231.26554688 568.86328125 231.40234375 C569.67152344 231.57894531 570.47976563 231.75554687 571.3125 231.9375 C572.11300781 232.11152344 572.91351562 232.28554688 573.73828125 232.46484375 C576 233 576 233 579 234 C579 234.66 579 235.32 579 236 C581.64 236.33 584.28 236.66 587 237 C587 237.66 587 238.32 587 239 C589.97 239.66 592.94 240.32 596 241 C596 241.66 596 242.32 596 243 C596.61488281 243.06058594 597.22976563 243.12117187 597.86328125 243.18359375 C598.67152344 243.26738281 599.47976563 243.35117187 600.3125 243.4375 C601.51326172 243.55931641 601.51326172 243.55931641 602.73828125 243.68359375 C605 244 605 244 608 245 C608.33 245.66 608.66 246.32 609 247 C610.98376474 247.96556539 610.98376474 247.96556539 613.41015625 248.8046875 C614.31830078 249.14113281 615.22644531 249.47757813 616.16210938 249.82421875 C617.11923828 250.17097656 618.07636719 250.51773438 619.0625 250.875 C624.96344672 253.02600345 630.69070896 255.22394808 636.26879883 258.12060547 C638.5587959 259.28385035 640.91251494 260.21400089 643.3125 261.125 C646.22983334 262.23331188 648.37305455 263.24870303 651 265 C651.36914349 267.71364021 651.36914349 267.71364021 651.36076355 271.23880005 C651.36332682 271.88571017 651.3658901 272.53262029 651.36853105 273.19913375 C651.37349037 275.37665813 651.35694172 277.55349606 651.34057617 279.73095703 C651.33973036 281.28788232 651.34020415 282.84480881 651.34190369 284.4017334 C651.34276686 288.63712118 651.32508927 292.87225572 651.30418181 297.10758448 C651.28546845 301.53052148 651.2836688 305.95346384 651.28010559 310.37643433 C651.27076938 318.75584177 651.24613435 327.13513224 651.21605712 335.5144881 C651.18256206 345.05242601 651.16603944 354.5903694 651.15097082 364.12835145 C651.11958611 383.75229967 651.06679508 403.37614248 651 423 C649.35 423.33 647.7 423.66 646 424 C646 424.66 646 425.32 646 426 C645.1028125 426.268125 644.205625 426.53625 643.28125 426.8125 C635.33831855 429.30697434 627.99869648 432.25283951 620.6328125 436.14453125 C609.50047863 442 609.50047863 442 603 442 C603 442.66 603 443.32 603 444 C598.12888484 446.22131872 593.25639049 448.31876104 588.2265625 450.15234375 C585.47485791 451.19992251 582.77317234 452.35053768 580.0625 453.5 C566.9522281 459 566.9522281 459 563 459 C563 459.66 563 460.32 563 461 C558.69442737 463.00259192 554.4386251 464.49043164 549.875 465.8125 C543.95543372 467.58085948 538.51939253 469.92606129 532.97265625 472.6328125 C530 474 530 474 527.03515625 474.984375 C522.50435359 476.5004737 518.31311069 478.66797172 514.0234375 480.7578125 C511 482 511 482 507 482 C507 482.66 507 483.32 507 484 C506.01902344 484.268125 505.03804687 484.53625 504.02734375 484.8125 C496.78308583 486.88371113 490.12659837 489.20683176 483.5625 492.9375 C476.89177387 496.72697771 470.09850406 499.25908771 462.8359375 501.68359375 C459.01358785 502.96360611 455.3878587 504.54604574 451.73828125 506.25390625 C449.53933223 507.19772482 447.36930335 507.69428344 445 508 C445 508.66 445 509.32 445 510 C444.09121094 510.27972656 443.18242188 510.55945313 442.24609375 510.84765625 C434.69974828 513.25474696 427.61952429 516.00249349 420.50341797 519.47607422 C415.41981095 521.9130542 410.29371859 523.55431635 404.8828125 525.08984375 C402.21364458 525.93254853 399.90529902 526.94325033 397.4375 528.25 C394 530 394 530 390 530 C390 530.66 390 531.32 390 532 C388.824375 532.350625 387.64875 532.70125 386.4375 533.0625 C382.12400921 534.48911474 378.08240078 536.33655811 374 538.3125 C367.7512311 541.33284501 361.41818971 543.74896819 354.81054688 545.87036133 C350.34310179 547.34824452 346.90398738 549.30798009 343 552 C341.12727067 552.48432655 339.25195422 552.96349223 337.359375 553.36328125 C333.25471349 554.47099619 329.42648123 556.27397151 325.5390625 557.9765625 C323 559 323 559 321 559 C321 559.66 321 560.32 321 561 C318.56427941 561.83887056 316.12666783 562.67126529 313.6875 563.5 C312.99720703 563.73847656 312.30691406 563.97695313 311.59570312 564.22265625 C308.61068511 565.23208263 306.17341086 566 303 566 C303 566.66 303 567.32 303 568 C297.74567937 570.45946923 292.69139902 571.90301833 287 573 C287 573.66 287 574.32 287 575 C285.20755859 575.58007812 285.20755859 575.58007812 283.37890625 576.171875 C274.68391552 579.01049611 266.15621295 581.82532548 258.0078125 586.02734375 C253.87688499 588.1571021 249.82928335 589.82018481 245.3984375 591.2265625 C241.91306644 592.35050952 238.48743553 593.62679174 235.05078125 594.890625 C232.80360111 595.70778142 230.54997994 596.50727783 228.29296875 597.296875 C227.34877075 597.62776123 227.34877075 597.62776123 226.38549805 597.96533203 C224.58083764 598.59671782 222.77482393 599.22423151 220.96875 599.8515625 C217.88097049 600.92252485 217.88097049 600.92252485 215 603 C212.9721471 603.66846121 210.92785116 604.2877778 208.875 604.875 C203.94413314 606.34048669 199.33729514 608.03210253 194.70703125 610.265625 C193 611 193 611 191 611 C191 611.66 191 612.32 191 613 C188.45884998 613.95972174 185.91710543 614.91781494 183.375 615.875 C182.66214844 616.14441406 181.94929687 616.41382813 181.21484375 616.69140625 C169.76028963 621 169.76028963 621 165 621 C165 621.66 165 622.32 165 623 C164.34 623 163.68 623 163 623 C162.67 623.99 162.34 624.98 162 626 C159.69645385 626.99270467 157.50512739 627.8095056 155.125 628.5625 C151.46278303 629.75734453 148.24170589 630.83886274 145 633 C143.11966003 633.59321869 141.22129792 634.13095819 139.3125 634.625 C138.31863281 634.88539063 137.32476562 635.14578125 136.30078125 635.4140625 C135.54152344 635.60742188 134.78226563 635.80078125 134 636 C134 636.66 134 637.32 134 638 C133.32195312 638.08636719 132.64390625 638.17273438 131.9453125 638.26171875 C125.70468841 639.20386283 120.9133603 640.8522372 115.3828125 643.8515625 C113.09135975 644.95596759 111.24294304 645.46104267 108.75 645.875 C103.78376629 646.78195403 99.60334374 649.08044525 95.17529297 651.38867188 C89.27852859 654.44066107 83.42238044 656.43008478 77 658 C77 658.66 77 659.32 77 660 C74.58660204 661.00858422 72.16981325 662.00702673 69.75 663 C69.06808594 663.28617188 68.38617188 663.57234375 67.68359375 663.8671875 C64.18584265 665.29345494 61.83099811 666 58 666 C58 666.66 58 667.32 58 668 C50.48816315 671.0461084 42.92870732 673.96213353 35.34985352 676.83666992 C33.43625638 677.56297201 31.52378038 678.29217387 29.61132812 679.02148438 C23.11583589 681.49114875 16.60556185 683.84140895 10 686 C9.05125 686.391875 8.1025 686.78375 7.125 687.1875 C5 688 5 688 2 688 C2 627.94 2 567.88 2 506 C7.445 504.02 7.445 504.02 13 502 C14.87974293 501.28314888 16.7564686 500.55808663 18.625 499.8125 C19.85089844 499.32716797 19.85089844 499.32716797 21.1015625 498.83203125 C22.97160184 498.14966361 22.97160184 498.14966361 24 497 C25.66617115 496.95936168 27.33388095 496.957279 29 497 C29 496.34 29 495.68 29 495 C31.37316118 494.18177267 33.7482942 493.37031293 36.125 492.5625 C36.79015625 492.33240234 37.4553125 492.10230469 38.140625 491.86523438 C42.07865153 490.53325481 45.86205422 489.56074966 50 489 C50 488.34 50 487.68 50 487 C51.134375 486.9175 52.26875 486.835 53.4375 486.75 C57.70236227 486.23579675 61.09436528 484.76073561 64.9453125 482.921875 C67.26336636 481.88183563 69.48176293 481.32493382 72 481 C72 480.34 72 479.68 72 479 C74.31 479 76.62 479 79 479 C79 478.34 79 477.68 79 477 C83.19857296 475.59222077 87.39780629 474.18643431 91.59765625 472.7824707 C93.02557279 472.30482484 94.45330917 471.82664002 95.88085938 471.34790039 C97.93572332 470.65889135 99.99123264 469.97183888 102.046875 469.28515625 C103.28276367 468.87144775 104.51865234 468.45773926 105.79199219 468.03149414 C109.77218886 466.75171249 113.07077929 465.86784632 117.25 465.9375 C119.10625 465.9684375 119.10625 465.9684375 121 466 C121 465.34 121 464.68 121 464 C121.74121094 463.78085937 122.48242188 463.56171875 123.24609375 463.3359375 C131.29220184 460.91324155 139.20193033 458.20541617 147.11328125 455.37890625 C150.04149871 454.33386325 152.97947057 453.33308741 155.9375 452.375 C159.96790135 451.06551162 163.84641331 449.44284645 167.73828125 447.76953125 C170 447 170 447 174 447 C174 446.34 174 445.68 174 445 C174.73605469 444.89042969 175.47210938 444.78085937 176.23046875 444.66796875 C177.69419922 444.43013672 177.69419922 444.43013672 179.1875 444.1875 C180.63189453 443.96126953 180.63189453 443.96126953 182.10546875 443.73046875 C185.24470697 442.93824534 187.23159341 441.66657287 190 440 C193.1699363 438.70541187 196.39587871 437.57503136 199.625 436.4375 C201.32683187 435.83572612 203.02741231 435.23039839 204.7265625 434.62109375 C205.47502441 434.3573999 206.22348633 434.09370605 206.99462891 433.82202148 C209.25547296 432.97244781 209.25547296 432.97244781 212 431 C212.99 431 213.98 431 215 431 C215 430.34 215 429.68 215 429 C217.60311992 428.32900016 220.20735398 427.66304662 222.8125 427 C223.55048828 426.80921875 224.28847656 426.6184375 225.04882812 426.421875 C228.10535341 425.64737086 230.83373478 425 234 425 C234 424.34 234 423.68 234 423 C235.03898438 422.68546875 236.07796875 422.3709375 237.1484375 422.046875 C244.23224183 419.87973419 251.19769888 417.7010178 257.984375 414.69921875 C260 414 260 414 264 414 C264 413.34 264 412.68 264 412 C264.59425781 411.83395264 265.18851562 411.66790527 265.80078125 411.49682617 C268.53487783 410.73065194 271.26743347 409.95911258 274 409.1875 C275.40185547 408.79594727 275.40185547 408.79594727 276.83203125 408.39648438 C281.7024591 407.01709747 286.44575024 405.51361523 291.16357422 403.6809082 C294.07835963 402.60016684 297.06350347 401.8114534 300.0625 401 C305.66043974 399.42613835 310.70632495 397.70173211 315.875 395.03125 C323.94467611 390.87032326 332.46507468 388.54242703 341.1875 386.125 C348.57844756 384.0497542 355.80392399 381.7804797 362.9921875 379.078125 C365.13938453 378.30848035 367.31977103 377.6289977 369.515625 377.01171875 C372.77516513 376.06528277 375.76600619 374.91478593 378.875 373.5625 C383.85752001 371.44663534 388.84694173 369.64300409 394 368 C395.16015625 367.5978125 395.16015625 367.5978125 396.34375 367.1875 C400.55472392 365.72769571 404.55614746 364.56972468 409 364 C409 363.34 409 362.68 409 362 C409.97839844 361.75765625 410.95679688 361.5153125 411.96484375 361.265625 C420.68222055 359.09357797 420.68222055 359.09357797 429 355.75 C432.88965936 353.860526 435.70806966 353.63472933 440 354 C440.33 353.01 440.66 352.02 441 351 C443.36200006 350.14109089 445.55660451 349.55458648 448 349 C449.0725 348.73960937 450.145 348.47921875 451.25 348.2109375 C460.50700935 346 460.50700935 346 464 346 C463.67 345.01 463.34 344.02 463 343 C460.45074471 341.84981237 460.45074471 341.84981237 457.375 341 C452.76070162 339.56835611 448.39484484 337.99765675 444 336 C444 335.34 444 334.68 444 334 C442.948125 334.0825 441.89625 334.165 440.8125 334.25 C434.62651975 334.27221178 428.71919247 332.21962994 423 330 C422.34 329.34 421.68 328.68 421 328 C418.8814665 327.26306872 418.8814665 327.26306872 416.4296875 326.7109375 C415.53378906 326.49179687 414.63789063 326.27265625 413.71484375 326.046875 C412.77769531 325.82515625 411.84054687 325.6034375 410.875 325.375 C409.93011719 325.14554687 408.98523438 324.91609375 408.01171875 324.6796875 C405.6759336 324.11343655 403.33875517 323.55383242 401 323 C401 322.34 401 321.68 401 321 C398.36 321 395.72 321 393 321 C393 320.34 393 319.68 393 319 C391.68 319 390.36 319 389 319 C389 318.34 389 317.68 389 317 C388.01 317 387.02 317 386 317 C386 316.34 386 315.68 386 315 C380.72 314.34 375.44 313.68 370 313 C370 312.34 370 311.68 370 311 C367.69 310.34 365.38 309.68 363 309 C363 308.34 363 307.68 363 307 C362.2265625 306.81824219 361.453125 306.63648438 360.65625 306.44921875 C354.57297621 304.98110193 348.820575 303.28665447 343 301 C341.67118672 300.649081 340.33867611 300.31118348 339 300 C339 299.34 339 298.68 339 298 C338.10539062 297.82984375 337.21078125 297.6596875 336.2890625 297.484375 C329.87115961 296.19805758 323.9174778 294.72114482 317.8984375 292.1015625 C313.24269382 290.33212892 308.42158396 289.14073579 303.59472656 287.92626953 C299.85069512 286.94717494 296.51977633 285.8447753 293.1015625 284.015625 C288.44313702 281.56127258 283.60561836 280.42993215 278.5 279.25 C277.5821875 279.02957031 276.664375 278.80914062 275.71875 278.58203125 C273.48108921 278.04592502 271.24172453 277.51879911 269 277 C269 276.34 269 275.68 269 275 C267.845 274.896875 266.69 274.79375 265.5 274.6875 C261.70124228 274.22603119 258.55667661 273.13317203 255.03125 271.69921875 C251.72998354 270.56282126 248.46825862 270.30966595 245 270 C245 269.34 245 268.68 245 268 C242.36 267.67 239.72 267.34 237 267 C237 266.34 237 265.68 237 265 C235.35 265 233.7 265 232 265 C231.67 264.01 231.34 263.02 231 262 C228.37626467 261.03674318 228.37626467 261.03674318 225.25 260.4375 C221.31257948 259.57921991 217.70431548 258.59834353 214 257 C214 256.34 214 255.68 214 255 C212.83726562 254.8040625 211.67453125 254.608125 210.4765625 254.40625 C200.71669674 252.62771251 192.04390161 250.16684809 183.14111328 245.73046875 C178.32134932 243.3706871 174.34730645 242.48933455 169 242 C168.67 241.67 168.34 241.34 168 241 C165.67182036 240.63239269 163.3381615 240.29758419 161 240 C161 239.34 161 238.68 161 238 C159.5459375 237.8453125 159.5459375 237.8453125 158.0625 237.6875 C154.22339718 237.15018135 150.73847231 235.97779799 147.08984375 234.69921875 C144.75373225 233.91760387 142.43124594 233.39213644 140 233 C140 232.34 140 231.68 140 231 C138.4840625 230.6596875 138.4840625 230.6596875 136.9375 230.3125 C128.53828581 228.20896678 120.18456799 225.37497704 112.1875 222.0625 C106.75419922 219.81612691 101.18084996 218.01585615 95.59448242 216.19360352 C91.93792774 214.9971971 88.31600869 213.75869649 84.72265625 212.3828125 C81.96159458 211.35719253 79.42803212 210.53136279 76.5625 209.9375 C75.386875 209.628125 74.21125 209.31875 73 209 C72.67 208.34 72.34 207.68 72 207 C69.72102817 206.1625428 69.72102817 206.1625428 67.0625 205.5 C62.21722114 204.21722114 62.21722114 204.21722114 60 202 C57.43749754 201.2831958 54.90538282 200.64467116 52.3125 200.0625 C46.89437226 198.84229144 42.05702148 197.31402536 37 195 C30.36350715 192.07908405 23.9014759 190.15286162 16.78515625 188.7109375 C14 188 14 188 11 186 C8.69898075 185.40936404 6.39449232 184.99209054 4.05859375 184.5625 C2 184 2 184 0 182 C-0.19294065 179.57862891 -0.26059992 177.27216459 -0.24050903 174.85006714 C-0.24221788 174.10515176 -0.24392673 173.36023638 -0.24568737 172.59274781 C-0.24899523 170.08370826 -0.23795742 167.57493309 -0.22705078 165.06591797 C-0.22648695 163.27254238 -0.22680268 161.47916633 -0.22793579 159.68579102 C-0.22851139 154.80585965 -0.21672367 149.92602591 -0.20278788 145.04611731 C-0.19031493 139.95051914 -0.18911274 134.85491893 -0.18673706 129.75930786 C-0.18051216 120.10496011 -0.16408772 110.45065747 -0.14403808 100.79632962 C-0.12171044 89.80738133 -0.11069355 78.81843094 -0.10064721 67.82946563 C-0.07972235 45.21961871 -0.04452681 22.60981188 0 0 Z " fill="#DD9524" transform="translate(81,67)"/>
<path d="M0 0 C-1.24460783 0.67667998 -2.49596896 1.34094719 -3.75 2 C-4.44609375 2.37125 -5.1421875 2.7425 -5.859375 3.125 C-8 4 -8 4 -12 4 C-12 64.06 -12 124.12 -12 186 C-7.05 184.02 -7.05 184.02 -2 182 C-1.34 182.33 -0.68 182.66 0 183 C-4.625 186 -4.625 186 -8 186 C-8 186.66 -8 187.32 -8 188 C-9.98 188.33 -11.96 188.66 -14 189 C-14.04666401 164.78316261 -14.08196132 140.56633194 -14.10362434 116.34945869 C-14.11394898 105.10584131 -14.12803192 93.86225183 -14.15087891 82.61865234 C-14.17077652 72.82187026 -14.18370779 63.02510838 -14.18817699 53.22830665 C-14.19079054 48.03814627 -14.19695801 42.84804367 -14.21146011 37.65790176 C-14.22498677 32.77754083 -14.22923266 27.89726175 -14.22621536 23.01688385 C-14.22676774 21.22133058 -14.23077435 19.4257747 -14.23841095 17.63023758 C-14.24829541 15.18731902 -14.2459929 12.74471345 -14.24050903 10.30178833 C-14.24633472 9.58389763 -14.2521604 8.86600693 -14.25816262 8.12636197 C-14.22824242 3.22824242 -14.22824242 3.22824242 -12 1 C-9.6875 0.33203125 -9.6875 0.33203125 -7 -0.1875 C-6.113125 -0.36667969 -5.22625 -0.54585937 -4.3125 -0.73046875 C-2 -1 -2 -1 0 0 Z " fill="#775020" transform="translate(95,569)"/>
<path d="M0 0 C4.77552133 0.57936242 8.01866653 1.22513122 12 4 C11.01 4.495 11.01 4.495 10 5 C7.36 4.01 4.72 3.02 2 2 C2 61.4 2 120.8 2 182 C3.65 182 5.3 182 7 182 C8.8125 183.5 8.8125 183.5 10 185 C2.25 184.25 2.25 184.25 0 182 C-0.19294065 179.57862891 -0.26059992 177.27216459 -0.24050903 174.85006714 C-0.24221788 174.10515176 -0.24392673 173.36023638 -0.24568737 172.59274781 C-0.24899523 170.08370826 -0.23795742 167.57493309 -0.22705078 165.06591797 C-0.22648695 163.27254238 -0.22680268 161.47916633 -0.22793579 159.68579102 C-0.22851139 154.80585965 -0.21672367 149.92602591 -0.20278788 145.04611731 C-0.19031493 139.95051914 -0.18911274 134.85491893 -0.18673706 129.75930786 C-0.18051216 120.10496011 -0.16408772 110.45065747 -0.14403808 100.79632962 C-0.12171044 89.80738133 -0.11069355 78.81843094 -0.10064721 67.82946563 C-0.07972235 45.21961871 -0.04452681 22.60981188 0 0 Z " fill="#744D1F" transform="translate(81,67)"/>
<path d="M0 0 C0.99 0 1.98 0 3 0 C3.07002244 20.67918855 3.12295495 41.3583576 3.15543652 62.03764057 C3.17091786 71.63898489 3.19203154 81.24025563 3.22631836 90.84155273 C3.25618197 99.20820052 3.27556578 107.57479504 3.28226548 115.94149464 C3.28618291 120.37328286 3.29541558 124.80491864 3.31719017 129.2366581 C3.33750741 133.40544483 3.34384351 137.5740159 3.33932304 141.74284744 C3.34015039 143.27514123 3.34614443 144.80744201 3.35761642 146.33969307 C3.3724866 148.42772331 3.36897442 150.51493336 3.36076355 152.60298157 C3.36352893 153.77273686 3.36629431 154.94249216 3.36914349 156.14769459 C3 159 3 159 1.72745228 160.89981365 C0 162 0 162 -4 162 C-4 161.34 -4 160.68 -4 160 C-2.35 159.67 -0.7 159.34 1 159 C0.67 106.53 0.34 54.06 0 0 Z " fill="#6C4D22" transform="translate(731,331)"/>
<path d="M0 0 C6.75 0.875 6.75 0.875 9 2 C9 2.66 9 3.32 9 4 C9.639375 4.103125 10.27875 4.20625 10.9375 4.3125 C15.06477326 5.23903073 19.00642949 6.61660629 23 8 C23 8.66 23 9.32 23 10 C26.3 10.66 29.6 11.32 33 12 C33 12.66 33 13.32 33 14 C38.445 14.495 38.445 14.495 44 15 C44 15.66 44 16.32 44 17 C44.66 17.103125 45.32 17.20625 46 17.3125 C49.83841009 18.19213564 53.33096691 19.56969896 57 21 C57 21.66 57 22.32 57 23 C57.7425 22.95875 58.485 22.9175 59.25 22.875 C62.08758952 23.00398134 63.58773938 23.57051222 66 25 C66 25.66 66 26.32 66 27 C66.66 27.12375 67.32 27.2475 68 27.375 C71.69698583 28.14520538 75.34005942 29.06950663 79 30 C79 30.66 79 31.32 79 32 C81.31 32.33 83.62 32.66 86 33 C86 33.66 86 34.32 86 35 C86.825 35.103125 87.65 35.20625 88.5 35.3125 C92.59289012 36.11646056 96.12540225 37.46352158 100 39 C100 39.66 100 40.32 100 41 C102.64 41.66 105.28 42.32 108 43 C103.59232396 44.10191901 102.1077065 43.58706842 98 42 C98 41.34 98 40.68 98 40 C96.41701974 39.5196682 94.83360022 39.04078388 93.25 38.5625 C92.36828125 38.29566406 91.4865625 38.02882812 90.578125 37.75390625 C88.39434165 37.11531506 86.21164502 36.53224167 84 36 C84 35.34 84 34.68 84 34 C80.04 33.34 76.08 32.68 72 32 C72 31.34 72 30.68 72 30 C70.68 30 69.36 30 68 30 C68 29.34 68 28.68 68 28 C67.01 28 66.02 28 65 28 C65 27.34 65 26.68 65 26 C63.68 26 62.36 26 61 26 C61 25.34 61 24.68 61 24 C59.35 24 57.7 24 56 24 C56 23.34 56 22.68 56 22 C53.36 21.67 50.72 21.34 48 21 C48 20.34 48 19.68 48 19 C47.35933594 18.87882812 46.71867187 18.75765625 46.05859375 18.6328125 C40.95071067 17.64320773 35.97749731 16.51489049 31 15 C31 14.34 31 13.68 31 13 C27.7 12.34 24.4 11.68 21 11 C21 10.34 21 9.68 21 9 C19.35 9 17.7 9 16 9 C16 8.34 16 7.68 16 7 C14.35 7 12.7 7 11 7 C11 6.34 11 5.68 11 5 C8.69 4.67 6.38 4.34 4 4 C4 3.34 4 2.68 4 2 C2.68 1.34 1.36 0.68 0 0 Z " fill="#744E1A" transform="translate(167,102)"/>
<path d="M0 0 C-3.88166146 2.91124609 -6.82315417 4.34563722 -11.640625 5.36328125 C-15.74528651 6.47099619 -19.57351877 8.27397151 -23.4609375 9.9765625 C-26 11 -26 11 -28 11 C-28 11.66 -28 12.32 -28 13 C-30.43572059 13.83887056 -32.87333217 14.67126529 -35.3125 15.5 C-36.00279297 15.73847656 -36.69308594 15.97695313 -37.40429688 16.22265625 C-40.38931489 17.23208263 -42.82658914 18 -46 18 C-46 18.66 -46 19.32 -46 20 C-51.25432063 22.45946923 -56.30860098 23.90301833 -62 25 C-62 25.66 -62 26.32 -62 27 C-64.10063576 27.69821417 -66.20565737 28.38324472 -68.3125 29.0625 C-69.48425781 29.44535156 -70.65601563 29.82820312 -71.86328125 30.22265625 C-75 31 -75 31 -78 30 C-75.36 29.34 -72.72 28.68 -70 28 C-70 27.34 -70 26.68 -70 26 C-67.89828133 25.1605118 -65.79353375 24.32860344 -63.6875 23.5 C-62.51574219 23.0359375 -61.34398437 22.571875 -60.13671875 22.09375 C-57 21 -57 21 -54 21 C-54 20.34 -54 19.68 -54 19 C-52.83984375 18.62488281 -51.6796875 18.24976563 -50.484375 17.86328125 C-42.34639527 15.20619552 -34.36799558 12.43673036 -26.50390625 9.03515625 C-23.37808251 7.74288902 -20.27806863 6.81951716 -17 6 C-17 5.34 -17 4.68 -17 4 C-14.54453034 3.13670227 -12.08621957 2.28410564 -9.625 1.4375 C-8.57699219 1.0672168 -8.57699219 1.0672168 -7.5078125 0.68945312 C-2.2265625 -1.11328125 -2.2265625 -1.11328125 0 0 Z " fill="#97641E" transform="translate(430,615)"/>
<path d="M0 0 C-3.11093224 3.11093224 -7.10606306 3.72494248 -11.25 5 C-14.09816984 5.8162462 -14.09816984 5.8162462 -16 8 C-18.6015625 8.4140625 -18.6015625 8.4140625 -21.625 8.625 C-22.62789063 8.69976562 -23.63078125 8.77453125 -24.6640625 8.8515625 C-25.82035156 8.92503906 -25.82035156 8.92503906 -27 9 C-27 9.66 -27 10.32 -27 11 C-52.03050071 19.87993653 -52.03050071 19.87993653 -61 22 C-59.6875 20.5 -59.6875 20.5 -58 19 C-57.01 19 -56.02 19 -55 19 C-55 18.34 -55 17.68 -55 17 C-54.3709375 16.81824219 -53.741875 16.63648438 -53.09375 16.44921875 C-48.87112161 15.20913963 -44.71817683 13.93432478 -40.625 12.3125 C-37 11 -37 11 -33 11 C-33 10.34 -33 9.68 -33 9 C-31.87722656 8.76925781 -30.75445312 8.53851563 -29.59765625 8.30078125 C-22.04063707 6.67695895 -15.46310682 5.17458271 -8.87109375 0.97265625 C-5.82772683 -0.60938626 -3.3573621 -0.35716618 0 0 Z " fill="#7C521B" transform="translate(282,503)"/>
<path d="M0 0 C2.31 0.33 4.62 0.66 7 1 C7 1.66 7 2.32 7 3 C8.65 3 10.3 3 12 3 C12 3.66 12 4.32 12 5 C12.99 5 13.98 5 15 5 C15 5.66 15 6.32 15 7 C16.60875 7.061875 16.60875 7.061875 18.25 7.125 C23.48343993 7.74179828 27.67867714 10.1532768 32.265625 12.625 C34.57041215 13.78397868 36.48494763 14.52094241 39 15 C39 15.66 39 16.32 39 17 C40.98 17 42.96 17 45 17 C45 17.66 45 18.32 45 19 C45.845625 18.9175 46.69125 18.835 47.5625 18.75 C52.03634062 19.07537023 54.24893952 20.59932129 58 23 C57.67 23.66 57.34 24.32 57 25 C55.68 24.67 54.36 24.34 53 24 C53 23.34 53 22.68 53 22 C51.906875 21.855625 50.81375 21.71125 49.6875 21.5625 C46 21 46 21 43 20 C43 19.34 43 18.68 43 18 C42.40832031 17.95101563 41.81664062 17.90203125 41.20703125 17.8515625 C36.80895528 17.43543133 33.03071103 16.95034405 29 15 C29 14.34 29 13.68 29 13 C27.9275 12.87625 26.855 12.7525 25.75 12.625 C22.62136385 12.10356064 20.66519576 11.59911746 18 10 C18 9.34 18 8.68 18 8 C16.68 8 15.36 8 14 8 C14 7.34 14 6.68 14 6 C12.68 6 11.36 6 10 6 C10 5.34 10 4.68 10 4 C8.68 4 7.36 4 6 4 C6 3.34 6 2.68 6 2 C4.35 2 2.7 2 1 2 C0.67 1.34 0.34 0.68 0 0 Z " fill="#895C1C" transform="translate(518,244)"/>
<path d="M0 0 C6.10244805 0.98677883 11.51212796 2.499163 17.1953125 4.9140625 C22.65748102 7.02894112 28.35141805 8.46983659 34 10 C34 10.66 34 11.32 34 12 C34.680625 12.12375 35.36125 12.2475 36.0625 12.375 C43.55502101 13.96915341 50.7538113 16.54890826 58 19 C54.8151065 20.0354051 52.86968126 19.94040666 49.671875 19.00390625 C48.87265625 18.77509766 48.0734375 18.54628906 47.25 18.31054688 C46.425 18.06369141 45.6 17.81683594 44.75 17.5625 C43.90953125 17.31951172 43.0690625 17.07652344 42.203125 16.82617188 C40.13284266 16.22626051 38.06606103 15.61429181 36 15 C36 14.34 36 13.68 36 13 C34.9275 12.855625 33.855 12.71125 32.75 12.5625 C30.08337051 12.16250558 27.58600271 11.72408076 25 11 C25 10.34 25 9.68 25 9 C23.865625 8.896875 22.73125 8.79375 21.5625 8.6875 C16.80602649 8.10889499 12.48101654 6.64926303 8 5 C8 4.34 8 3.68 8 3 C6.865625 2.87625 5.73125 2.7525 4.5625 2.625 C3.386875 2.41875 2.21125 2.2125 1 2 C0.67 1.34 0.34 0.68 0 0 Z " fill="#8D601E" transform="translate(386,355)"/>
<path d="M0 0 C0.53625 0.226875 1.0725 0.45375 1.625 0.6875 C-0.375 2.6875 -0.375 2.6875 -3.4375 3.1875 C-4.406875 3.3525 -5.37625 3.5175 -6.375 3.6875 C-6.705 4.3475 -7.035 5.0075 -7.375 5.6875 C-9.70833333 6.02083333 -12.04166667 6.35416667 -14.375 6.6875 C-14.705 7.3475 -15.035 8.0075 -15.375 8.6875 C-17.01043645 8.92600115 -18.64739691 9.15668699 -20.2890625 9.34765625 C-24.12571369 9.97272863 -27.72221223 11.38996091 -31.375 12.6875 C-35.80899925 14.24476963 -40.12772085 15.68245753 -44.75 16.5625 C-49.51543707 17.52563754 -53.58567328 19.55443941 -57.89453125 21.76171875 C-60.60951431 22.77502739 -61.71508144 22.7105456 -64.375 21.6875 C-57.21820829 16.83935078 -48.42114004 15.09445981 -40.1875 12.8125 C-32.79655244 10.7372542 -25.57107601 8.4679797 -18.3828125 5.765625 C-16.18092753 4.97637792 -13.94324203 4.2851502 -11.69140625 3.65234375 C-8.30657795 2.78892213 -8.30657795 2.78892213 -5.1875 1 C-2.375 -0.3125 -2.375 -0.3125 0 0 Z " fill="#A56D1E" transform="translate(462.375,440.3125)"/>
<path d="M0 0 C-4.46726453 3.31442207 -8.62007164 3.66009167 -14 4 C-14 4.66 -14 5.32 -14 6 C-28.26925676 10.87195946 -28.26925676 10.87195946 -34.9375 12.5625 C-38.38345988 13.44962955 -41.30517797 14.56292214 -44.4375 16.25 C-48 18 -48 18 -50.22265625 17.609375 C-50.80917969 17.40828125 -51.39570313 17.2071875 -52 17 C-46.375 14 -46.375 14 -43 14 C-43 13.34 -43 12.68 -43 12 C-40.69 12 -38.38 12 -36 12 C-36 11.34 -36 10.68 -36 10 C-31.80142704 8.59222077 -27.60219371 7.18643431 -23.40234375 5.7824707 C-21.97442721 5.30482484 -20.54669083 4.82664002 -19.11914062 4.34790039 C-17.06427668 3.65889135 -15.00876736 2.97183888 -12.953125 2.28515625 C-11.71723633 1.87144775 -10.48134766 1.45773926 -9.20800781 1.03149414 C-2.3483094 -1.1741547 -2.3483094 -1.1741547 0 0 Z " fill="#905D1E" transform="translate(196,534)"/>
<path d="M0 0 C0.33 0 0.66 0 1 0 C1 28.71 1 57.42 1 87 C2.65 87 4.3 87 6 87 C7.8125 88.5 7.8125 88.5 9 90 C1.125 89.125 1.125 89.125 0 88 C-0.09516211 85.2611158 -0.12554594 82.54752059 -0.11352539 79.80834961 C-0.11367142 78.94988937 -0.11381744 78.09142914 -0.1139679 77.20695496 C-0.11326847 74.35539262 -0.1054747 71.50389475 -0.09765625 68.65234375 C-0.09579218 66.68079158 -0.09436822 64.70923895 -0.09336853 62.73768616 C-0.08954251 57.53773733 -0.07971152 52.33781625 -0.06866455 47.13787842 C-0.05845222 41.83606339 -0.05387129 36.5342439 -0.04882812 31.23242188 C-0.03808933 20.82160237 -0.02101191 10.41080349 0 0 Z " fill="#A06822" transform="translate(82,162)"/>
<path d="M0 0 C2.0625 0.4375 2.0625 0.4375 4 1 C-2.68646335 3.80325955 -9.37974695 6.57361763 -16.13671875 9.203125 C-17.97788606 9.85385421 -17.97788606 9.85385421 -19 11 C-21.33297433 11.04092937 -23.66705225 11.04241723 -26 11 C-26 11.66 -26 12.32 -26 13 C-30.53701494 14.45184478 -34.18061476 15.23509196 -39 15 C-34.34234228 10.74735599 -28.18257992 9 -22 9 C-22 8.34 -22 7.68 -22 7 C-21.36908447 6.823479 -20.73816895 6.64695801 -20.08813477 6.46508789 C-17.24528492 5.66764242 -14.40388702 4.86514132 -11.5625 4.0625 C-10.07266602 3.64581055 -10.07266602 3.64581055 -8.55273438 3.22070312 C-7.60849609 2.95322266 -6.66425781 2.68574219 -5.69140625 2.41015625 C-4.81685791 2.16402588 -3.94230957 1.91789551 -3.04125977 1.66430664 C-1.02885154 1.18004206 -1.02885154 1.18004206 0 0 Z " fill="#86591A" transform="translate(367,472)"/>
<path d="M0 0 C-2.41339796 1.00858422 -4.83018675 2.00702673 -7.25 3 C-7.93191406 3.28617188 -8.61382812 3.57234375 -9.31640625 3.8671875 C-12.81415735 5.29345494 -15.16900189 6 -19 6 C-19 6.66 -19 7.32 -19 8 C-21.37316638 8.94926655 -23.74653128 9.89797832 -26.12109375 10.84375 C-28.01348607 11.60378816 -29.90169698 12.37433704 -31.78515625 13.15625 C-32.66042969 13.5171875 -33.53570312 13.878125 -34.4375 14.25 C-35.24058594 14.58515625 -36.04367188 14.9203125 -36.87109375 15.265625 C-39 16 -39 16 -42 16 C-42 15.34 -42 14.68 -42 14 C-40.9378125 13.61328125 -39.875625 13.2265625 -38.78125 12.828125 C-29.84642846 9.62126059 -29.84642846 9.62126059 -21.25 5.625 C-18 4 -18 4 -14 4 C-14 3.34 -14 2.68 -14 2 C-12.42085985 1.46658816 -10.83645613 0.94874237 -9.25 0.4375 C-8.36828125 0.14746094 -7.4865625 -0.14257812 -6.578125 -0.44140625 C-3.92165684 -1.01697435 -2.52968894 -0.89248371 0 0 Z " fill="#95631E" transform="translate(158,727)"/>
<path d="M0 0 C2.97 0.33 5.94 0.66 9 1 C9 1.66 9 2.32 9 3 C9.97839844 3.09796875 10.95679688 3.1959375 11.96484375 3.296875 C19.62490855 4.17058937 26.16066025 5.18183201 33 9 C33 9.66 33 10.32 33 11 C31.72125 10.71125 30.4425 10.4225 29.125 10.125 C24.09828073 9.00617536 19.05314632 7.9916404 14 7 C14 6.34 14 5.68 14 5 C11.36 4.67 8.72 4.34 6 4 C6 3.34 6 2.68 6 2 C4.35 2 2.7 2 1 2 C0.67 1.34 0.34 0.68 0 0 Z " fill="#6D4B1E" transform="translate(312,330)"/>
<path d="M0 0 C-0.74765625 0.26554687 -1.4953125 0.53109375 -2.265625 0.8046875 C-3.25046875 1.15789062 -4.2353125 1.51109375 -5.25 1.875 C-6.22453125 2.22304688 -7.1990625 2.57109375 -8.203125 2.9296875 C-10.93297895 3.90647981 -10.93297895 3.90647981 -13.109375 5.1328125 C-15 6 -15 6 -19 6 C-19 6.66 -19 7.32 -19 8 C-35.04692082 15.31769306 -35.04692082 15.31769306 -39 14 C-37.13032395 13.01070539 -35.25398622 12.03399531 -33.375 11.0625 C-32.33085938 10.51722656 -31.28671875 9.97195313 -30.2109375 9.41015625 C-27.07583082 8.03330283 -24.38545368 7.40157784 -21 7 C-21 6.34 -21 5.68 -21 5 C-18.25435036 3.96588523 -15.5045139 2.94748843 -12.75 1.9375 C-11.97269531 1.64294922 -11.19539062 1.34839844 -10.39453125 1.04492188 C-9.64042969 0.77099609 -8.88632812 0.49707031 -8.109375 0.21484375 C-7.41811523 -0.04176025 -6.72685547 -0.29836426 -6.01464844 -0.56274414 C-3.67968529 -1.06952056 -2.24624397 -0.74214139 0 0 Z " fill="#92611F" transform="translate(703,503)"/>
<path d="M0 0 C1.65 0 3.3 0 5 0 C5 0.66 5 1.32 5 2 C5.80824219 2.03738281 6.61648438 2.07476562 7.44921875 2.11328125 C9.05216797 2.21189453 9.05216797 2.21189453 10.6875 2.3125 C12.27111328 2.39951172 12.27111328 2.39951172 13.88671875 2.48828125 C17.25895644 3.04256373 19.27854581 3.95512255 22 6 C22 6.66 22 7.32 22 8 C23.65 8 25.3 8 27 8 C27 8.66 27 9.32 27 10 C28.98 10.66 30.96 11.32 33 12 C31 13 31 13 29.24414062 12.57861328 C28.55513672 12.32837402 27.86613281 12.07813477 27.15625 11.8203125 C26.40472656 11.55089844 25.65320313 11.28148437 24.87890625 11.00390625 C24.09386719 10.71386719 23.30882812 10.42382812 22.5 10.125 C21.71496094 9.84269531 20.92992187 9.56039063 20.12109375 9.26953125 C14.39237189 7.19618595 14.39237189 7.19618595 12 6 C12 5.34 12 4.68 12 4 C9.36 3.67 6.72 3.34 4 3 C4 2.34 4 1.68 4 1 C2.68 0.67 1.36 0.34 0 0 Z " fill="#98641D" transform="translate(576,269)"/>
<path d="M0 0 C3.63 0.66 7.26 1.32 11 2 C11 2.66 11 3.32 11 4 C13.31 4.33 15.62 4.66 18 5 C18 5.66 18 6.32 18 7 C18.825 7.103125 19.65 7.20625 20.5 7.3125 C24.59289012 8.11646056 28.12540225 9.46352158 32 11 C32 11.66 32 12.32 32 13 C34.64 13.66 37.28 14.32 40 15 C35.59232396 16.10191901 34.1077065 15.58706842 30 14 C30 13.34 30 12.68 30 12 C28.41701974 11.5196682 26.83360022 11.04078388 25.25 10.5625 C24.36828125 10.29566406 23.4865625 10.02882812 22.578125 9.75390625 C20.39434165 9.11531506 18.21164502 8.53224167 16 8 C16 7.34 16 6.68 16 6 C10.06 5.01 10.06 5.01 4 4 C4 3.34 4 2.68 4 2 C2.68 2 1.36 2 0 2 C0 1.34 0 0.68 0 0 Z " fill="#81561C" transform="translate(235,130)"/>
<path d="M0 0 C0.66 0.33 1.32 0.66 2 1 C1.3709375 1.24234375 0.741875 1.4846875 0.09375 1.734375 C-4.02305197 3.34637577 -8.04217708 4.96501843 -11.9375 7.0625 C-16.70320518 9.53831809 -21.80497203 10.73944174 -27 12 C-27 12.66 -27 13.32 -27 14 C-28.32 13.67 -29.64 13.34 -31 13 C-29.02579865 10.47740939 -28.03254358 10.0070192 -24.8125 9.3125 C-23.884375 9.209375 -22.95625 9.10625 -22 9 C-22 8.34 -22 7.68 -22 7 C-15.69867343 4.86851679 -9.41183055 2.77348505 -3 1 C-2.01 0.67 -1.02 0.34 0 0 Z " fill="#7C551C" transform="translate(242,691)"/>
<path d="M0 0 C3.26520744 0.80075325 6.50746067 1.67466185 9.75 2.5625 C11.22726563 2.96662109 11.22726563 2.96662109 12.734375 3.37890625 C13.85585937 3.68634766 13.85585937 3.68634766 15 4 C15 4.66 15 5.32 15 6 C15.763125 5.938125 16.52625 5.87625 17.3125 5.8125 C20.50339968 6.03512091 20.96106145 6.68302438 23 9 C23.99 9.33 24.98 9.66 26 10 C26 10.66 26 11.32 26 12 C27.98 12 29.96 12 32 12 C32 12.66 32 13.32 32 14 C34.31 14.33 36.62 14.66 39 15 C38.67 15.66 38.34 16.32 38 17 C35.69 16.34 33.38 15.68 31 15 C31 14.34 31 13.68 31 13 C29.02 13 27.04 13 25 13 C25 12.34 25 11.68 25 11 C23.865625 10.87625 22.73125 10.7525 21.5625 10.625 C19.7990625 10.315625 19.7990625 10.315625 18 10 C17.67 9.34 17.34 8.68 17 8 C14.97536745 7.34786708 14.97536745 7.34786708 13 7 C13 6.34 13 5.68 13 5 C12.31292969 4.89042969 11.62585938 4.78085938 10.91796875 4.66796875 C10.01691406 4.50941406 9.11585937 4.35085937 8.1875 4.1875 C7.29417969 4.03667969 6.40085937 3.88585937 5.48046875 3.73046875 C2.81678744 2.94604607 1.74309678 2.11372201 0 0 Z " fill="#744E1B" transform="translate(94,72)"/>
<path d="M0 0 C-10.75851911 5.67267371 -22.08241559 8.69477382 -34 11 C-33.01 10.67 -32.02 10.34 -31 10 C-31 9.34 -31 8.68 -31 8 C-28.39688008 7.32900016 -25.79264602 6.66304662 -23.1875 6 C-22.44951172 5.80921875 -21.71152344 5.6184375 -20.95117188 5.421875 C-17.89464659 4.64737086 -15.16626522 4 -12 4 C-12 3.34 -12 2.68 -12 2 C-10.37787941 1.47026689 -8.75218416 0.95146893 -7.125 0.4375 C-6.22007812 0.14746094 -5.31515625 -0.14257812 -4.3828125 -0.44140625 C-2 -1 -2 -1 0 0 Z " fill="#905F1B" transform="translate(327,488)"/>
<path d="M0 0 C-2.27694716 2.27694716 -4.06838152 2.92947387 -7.0625 4.0625 C-10.28488289 5.12070289 -10.28488289 5.12070289 -13 7 C-14.39244998 7.15829958 -15.78953608 7.27665078 -17.1875 7.375 C-21.38053406 7.77433658 -24.24572436 9.07920781 -28 11 C-30.16796875 10.5859375 -30.16796875 10.5859375 -32 10 C-26.45108785 7.18150494 -22.258654 5.4673486 -16 6 C-15.67 5.01 -15.34 4.02 -15 3 C-11.625 1.875 -11.625 1.875 -8 1 C-5.07175348 0.02391783 -3.04386724 -0.08226668 0 0 Z " fill="#98651F" transform="translate(537,415)"/>
<path d="M0 0 C0.66 0.33 1.32 0.66 2 1 C-0.64738916 2.4606285 -1.89448334 3 -5 3 C-5 3.66 -5 4.32 -5 5 C-8.33034998 6.29945055 -11.66477778 7.58811185 -15 8.875 C-15.93457031 9.23980469 -16.86914062 9.60460937 -17.83203125 9.98046875 C-23.17825836 12.03670995 -28.40935101 13.74737817 -34 15 C-31.4245722 11.90228265 -28.60932727 10.87719871 -24.875 9.5 C-23.71226562 9.06816406 -22.54953125 8.63632812 -21.3515625 8.19140625 C-17.96389073 6.98716395 -14.56083425 5.8566762 -11.13671875 4.76171875 C-7.93686617 3.62100348 -4.90003969 2.15769128 -1.84765625 0.671875 C-0.93306641 0.33929687 -0.93306641 0.33929687 0 0 Z " fill="#6C4A1D" transform="translate(207,705)"/>
<path d="M0 0 C0 0.66 0 1.32 0 2 C-1.3303125 2.309375 -1.3303125 2.309375 -2.6875 2.625 C-7.67091904 4.03136365 -12.24971914 6.34665993 -16.9140625 8.5625 C-24.47592068 12.08498584 -24.47592068 12.08498584 -27.3125 11.625 C-27.869375 11.41875 -28.42625 11.2125 -29 11 C-28.01 11 -27.02 11 -26 11 C-26 10.34 -26 9.68 -26 9 C-20.86025723 6.23976777 -15.94947204 4.24058213 -10.3359375 2.66015625 C-8.37236513 2.10523362 -6.43229039 1.46809852 -4.5 0.8125 C-2 0 -2 0 0 0 Z " fill="#66461D" transform="translate(298,669)"/>
<path d="M0 0 C-5.25432063 2.45946923 -10.30860098 3.90301833 -16 5 C-16 5.66 -16 6.32 -16 7 C-18.10063576 7.69821417 -20.20565737 8.38324472 -22.3125 9.0625 C-23.48425781 9.44535156 -24.65601563 9.82820312 -25.86328125 10.22265625 C-29 11 -29 11 -32 10 C-29.36 9.34 -26.72 8.68 -24 8 C-24 7.34 -24 6.68 -24 6 C-4.35227273 -1.74090909 -4.35227273 -1.74090909 0 0 Z " fill="#7F561E" transform="translate(384,635)"/>
<path d="M0 0 C-3.97184011 2.67320787 -7.67715042 3.86365281 -12.3125 5 C-16.53689107 6.05494496 -20.65519689 7.14632192 -24.6875 8.8125 C-28.0713847 10.02559074 -28.78183839 10.03065306 -32 9 C-31.31292969 8.80664062 -30.62585938 8.61328125 -29.91796875 8.4140625 C-28.56638672 8.02347656 -28.56638672 8.02347656 -27.1875 7.625 C-26.29417969 7.36976563 -25.40085937 7.11453125 -24.48046875 6.8515625 C-21.79532104 6.04733339 -21.79532104 6.04733339 -19 4 C-17.68 4 -16.36 4 -15 4 C-15 3.34 -15 2.68 -15 2 C-13.25364835 1.46706165 -11.50272348 0.94909337 -9.75 0.4375 C-8.77546875 0.14746094 -7.8009375 -0.14257812 -6.796875 -0.44140625 C-4.03756068 -0.99249836 -2.6087176 -0.93789609 0 0 Z " fill="#7A511D" transform="translate(505,427)"/>
<path d="M0 0 C5.02550721 0.41605506 9.35711504 0.92291988 14 3 C15.60520794 3.45863084 17.21085686 3.91588056 18.8203125 4.359375 C23.59169313 5.76171626 28.28965892 7.40668266 33 9 C29.8151065 10.0354051 27.86968126 9.94040666 24.671875 9.00390625 C23.87265625 8.77509766 23.0734375 8.54628906 22.25 8.31054688 C21.425 8.06369141 20.6 7.81683594 19.75 7.5625 C18.90953125 7.31951172 18.0690625 7.07652344 17.203125 6.82617188 C15.13284266 6.22626051 13.06606103 5.61429181 11 5 C11 4.34 11 3.68 11 3 C9.9275 2.87625 8.855 2.7525 7.75 2.625 C4.55333667 2.09222278 2.75908348 1.50162508 0 0 Z " fill="#614420" transform="translate(411,365)"/>
<path d="M0 0 C-1.03898437 0.38671875 -2.07796875 0.7734375 -3.1484375 1.171875 C-15.87474755 5.61292311 -15.87474755 5.61292311 -28.125 11.1328125 C-30.48296907 12.22337319 -31.60425816 11.85562208 -34 11 C-28.375 8 -28.375 8 -25 8 C-25 7.34 -25 6.68 -25 6 C-22.69 6 -20.38 6 -18 6 C-18 5.34 -18 4.68 -18 4 C-15.75438718 3.13237686 -13.50473745 2.2807897 -11.25 1.4375 C-10.61578125 1.19064453 -9.9815625 0.94378906 -9.328125 0.68945312 C-5.88990821 -0.58197079 -3.47831118 -1.46686355 0 0 Z " fill="#6E481B" transform="translate(178,540)"/>
<path d="M0 0 C5.42039575 -0.40652968 9.07015675 0.96006486 14 3 C14 3.66 14 4.32 14 5 C15.08667969 5.16435547 15.08667969 5.16435547 16.1953125 5.33203125 C21.66287223 6.22871105 26.22286803 7.15954315 31 10 C27.52176885 11.15941038 25.54104422 10.70820884 22 10 C22 9.34 22 8.68 22 8 C21.13632812 7.88527344 20.27265625 7.77054687 19.3828125 7.65234375 C15.93978644 6.98838838 13.08969885 5.94786255 9.875 4.5625 C8.86179687 4.13066406 7.84859375 3.69882812 6.8046875 3.25390625 C4.5017451 2.2243178 2.24267485 1.15352893 0 0 Z " fill="#724E1C" transform="translate(281,319)"/>
<path d="M0 0 C4.43013067 0.84424887 8.80679071 1.87106489 13.1875 2.9375 C13.91130859 3.10701172 14.63511719 3.27652344 15.38085938 3.45117188 C20.76951201 4.76951201 20.76951201 4.76951201 23 7 C24.68761858 7.60311615 26.40014476 8.13850237 28.125 8.625 C29.03507812 8.88539063 29.94515625 9.14578125 30.8828125 9.4140625 C31.93082031 9.70410156 31.93082031 9.70410156 33 10 C29.58577002 11.16947188 27.5803699 10.81489457 24.1875 9.6875 C22.88232422 9.26597656 22.88232422 9.26597656 21.55078125 8.8359375 C20.70902344 8.56007813 19.86726563 8.28421875 19 8 C17.62718347 7.59665921 16.25246999 7.19965043 14.875 6.8125 C13.92625 6.544375 12.9775 6.27625 12 6 C12 5.34 12 4.68 12 4 C10.7625 3.896875 9.525 3.79375 8.25 3.6875 C4.7207134 3.26198318 2.62839034 2.51887408 0 0 Z " fill="#5F431E" transform="translate(120,263)"/>
<path d="M0 0 C-1.43429001 0.67354499 -2.87257057 1.33859701 -4.3125 2 C-5.11300781 2.37125 -5.91351562 2.7425 -6.73828125 3.125 C-9 4 -9 4 -12 4 C-12 4.66 -12 5.32 -12 6 C-20.42857143 9.42857143 -20.42857143 9.42857143 -25 9 C-22.70151986 6.37713199 -20.67733151 5.28933176 -17.40234375 4.140625 C-16.51869141 3.82996094 -15.63503906 3.51929688 -14.72460938 3.19921875 C-13.80486328 2.88597656 -12.88511719 2.57273437 -11.9375 2.25 C-11.01388672 1.92128906 -10.09027344 1.59257813 -9.13867188 1.25390625 C-2.25734382 -1.12867191 -2.25734382 -1.12867191 0 0 Z " fill="#8B5C1E" transform="translate(538,571)"/>
<path d="M0 0 C4.83628305 0.99043705 9.47618873 1.95698846 14 4 C14 4.66 14 5.32 14 6 C16.64 6.33 19.28 6.66 22 7 C22 7.66 22 8.32 22 9 C23.65 9 25.3 9 27 9 C27 9.66 27 10.32 27 11 C28.32 11 29.64 11 31 11 C30.67 11.66 30.34 12.32 30 13 C27.525 12.505 27.525 12.505 25 12 C25 11.34 25 10.68 25 10 C23.35 10 21.7 10 20 10 C20 9.34 20 8.68 20 8 C17.69 7.67 15.38 7.34 13 7 C13 6.34 13 5.68 13 5 C11.02 5 9.04 5 7 5 C7 4.34 7 3.68 7 3 C6.030625 2.87625 5.06125 2.7525 4.0625 2.625 C3.051875 2.41875 2.04125 2.2125 1 2 C0.67 1.34 0.34 0.68 0 0 Z " fill="#92611C" transform="translate(355,179)"/>
<path d="M0 0 C2.64 0 5.28 0 8 0 C5.14585217 1.90276522 3.1305318 2.65607642 -0.125 3.5625 C-3.34168287 4.27737882 -3.34168287 4.27737882 -6 6 C-7.66617115 6.04063832 -9.33388095 6.042721 -11 6 C-11 6.66 -11 7.32 -11 8 C-12.98 8 -14.96 8 -17 8 C-16.01 7.67 -15.02 7.34 -14 7 C-14 6.34 -14 5.68 -14 5 C-12.5459375 4.5359375 -12.5459375 4.5359375 -11.0625 4.0625 C-8.15934208 3.30476658 -8.15934208 3.30476658 -7 2 C-4.66702567 1.95907063 -2.33294775 1.95758277 0 2 C0 1.34 0 0.68 0 0 Z " fill="#754C1B" transform="translate(213,525)"/>
<path d="M0 0 C0.53625 0.226875 1.0725 0.45375 1.625 0.6875 C-2.06110691 3.04194073 -5.72115189 4.71273257 -9.8125 6.25 C-11.45025391 6.87068359 -11.45025391 6.87068359 -13.12109375 7.50390625 C-14.19488281 7.89449219 -15.26867187 8.28507813 -16.375 8.6875 C-17.45910156 9.08839844 -18.54320312 9.48929688 -19.66015625 9.90234375 C-22.375 10.6875 -22.375 10.6875 -24.375 9.6875 C-19.84172926 6.8903755 -15.60119326 4.98342429 -10.515625 3.41796875 C-8.11738182 2.66194046 -8.11738182 2.66194046 -5.0625 0.9375 C-2.375 -0.3125 -2.375 -0.3125 0 0 Z " fill="#875B1C" transform="translate(350.375,646.3125)"/>
<path d="M0 0 C-8.71472466 4.50506953 -17.49753672 6.86582067 -27 9 C-25.6875 7.5 -25.6875 7.5 -24 6 C-23.01 6 -22.02 6 -21 6 C-21 5.34 -21 4.68 -21 4 C-17.87808127 3.13428401 -14.75206694 2.28441396 -11.625 1.4375 C-10.73554688 1.19064453 -9.84609375 0.94378906 -8.9296875 0.68945312 C-8.07890625 0.46064453 -7.228125 0.23183594 -6.3515625 -0.00390625 C-5.56604004 -0.21861572 -4.78051758 -0.4333252 -3.97119141 -0.65454102 C-2 -1 -2 -1 0 0 Z " fill="#86581C" transform="translate(248,516)"/>
<path d="M0 0 C1.99954746 -0.04254356 4.00041636 -0.04080783 6 0 C6.33 0.33 6.66 0.66 7 1 C10.51875393 1.71467577 14.04782142 2.35468716 17.58203125 2.98828125 C21 4 21 4 25 8 C20.71 7.01 16.42 6.02 12 5 C12 4.34 12 3.68 12 3 C9.36 3 6.72 3 4 3 C4 2.34 4 1.68 4 1 C2.68 0.67 1.36 0.34 0 0 Z " fill="#855B20" transform="translate(470,385)"/>
<path d="M0 0 C-5.6710213 3.65142682 -11.6026744 6.08921666 -17.9375 8.3125 C-18.69538818 8.57885254 -19.45327637 8.84520508 -20.23413086 9.11962891 C-25.71659169 11 -25.71659169 11 -28 11 C-28 10.34 -28 9.68 -28 9 C-21.5944041 5.87168572 -14.94970825 4.47354716 -8 3 C-8 2.34 -8 1.68 -8 1 C-2.25 -1.125 -2.25 -1.125 0 0 Z " fill="#8B5D1D" transform="translate(566,559)"/>
<path d="M0 0 C-3.86445311 3.48397607 -7.72847472 5.25842704 -12.625 6.8125 C-13.29273438 7.04130859 -13.96046875 7.27011719 -14.6484375 7.50585938 C-19.61258913 9.12913696 -19.61258913 9.12913696 -23 8 C-22.20335937 7.67386719 -21.40671875 7.34773437 -20.5859375 7.01171875 C-13.98012824 4.30390824 -13.98012824 4.30390824 -7.5625 1.1875 C-4.80775536 -0.08908898 -2.99915512 -0.26463133 0 0 Z " fill="#92621E" transform="translate(506,583)"/>
<path d="M0 0 C6.81248702 1.37080532 13.16774214 2.69645583 19.27734375 6.08203125 C21.7434469 7.39616785 24.33092466 8.1992774 27 9 C27 9.33 27 9.66 27 10 C20.93382389 9.57677841 15.80178642 7.51332347 10.18359375 5.25390625 C7.00248575 3.95526523 7.00248575 3.95526523 3.66015625 2.96484375 C1 2 1 2 0 0 Z " fill="#68481F" transform="translate(357,345)"/>
<path d="M0 0 C0.66 0.33 1.32 0.66 2 1 C0 3 0 3 -3.625 3.125 C-4.73875 3.08375 -5.8525 3.0425 -7 3 C-7 3.66 -7 4.32 -7 5 C-11.53701494 6.45184478 -15.18061476 7.23509196 -20 7 C-14.84398508 2.63721814 -9.39178457 1.78257528 -2.85546875 1.24609375 C-0.98692794 1.18959385 -0.98692794 1.18959385 0 0 Z " fill="#A76E1E" transform="translate(348,480)"/>
<path d="M0 0 C4.455 0.99 4.455 0.99 9 2 C9 2.99 9 3.98 9 5 C10.010625 5.12375 11.02125 5.2475 12.0625 5.375 C15.87937612 5.98085335 19.31500112 6.87193912 23 8 C23 8.66 23 9.32 23 10 C15.51747162 8.62820313 8.94395046 6.07836721 2 3 C2 2.34 2 1.68 2 1 C1.34 0.67 0.68 0.34 0 0 Z " fill="#81561C" transform="translate(277,146)"/>
<path d="M0 0 C-0.78503906 0.32613281 -1.57007813 0.65226562 -2.37890625 0.98828125 C-3.42949219 1.42527344 -4.48007812 1.86226563 -5.5625 2.3125 C-7.20412109 2.99119141 -7.20412109 2.99119141 -8.87890625 3.68359375 C-11.28391704 4.69797252 -13.63955762 5.76450741 -16 6.875 C-18.9830453 7.99364199 -20.1256105 8.26473138 -23 7 C-18.59931524 4.01889097 -14.03150178 2.53955354 -9 1 C-7.97712891 0.66935547 -7.97712891 0.66935547 -6.93359375 0.33203125 C-2.24983912 -1.12491956 -2.24983912 -1.12491956 0 0 Z " fill="#69451B" transform="translate(421,455)"/>
<path d="M0 0 C2.97 0.495 2.97 0.495 6 1 C6 1.66 6 2.32 6 3 C6.61488281 3.06058594 7.22976563 3.12117188 7.86328125 3.18359375 C8.67152344 3.26738281 9.47976563 3.35117187 10.3125 3.4375 C11.11300781 3.51871094 11.91351562 3.59992188 12.73828125 3.68359375 C15 4 15 4 18 5 C18.33 5.99 18.66 6.98 19 8 C11.91953003 7.39740681 4.89309555 5.41956785 0 0 Z " fill="#8D5E1D" transform="translate(671,307)"/>
<path d="M0 0 C6.19518473 0.41588046 11.26689311 1.60251894 17 4 C17 4.66 17 5.32 17 6 C18.65 6 20.3 6 22 6 C22 6.66 22 7.32 22 8 C22.99 8.33 23.98 8.66 25 9 C23.68 9 22.36 9 21 9 C21 8.34 21 7.68 21 7 C20.0409375 7.0928125 20.0409375 7.0928125 19.0625 7.1875 C12.36669221 6.77755258 6.06438262 3.70961777 0 1 C0 0.67 0 0.34 0 0 Z " fill="#3F2D18" transform="translate(388,192)"/>
<path d="M0 0 C-5.67069329 3.09206817 -10.45939944 5.47675195 -17 6 C-18.33917261 6.30903983 -19.67653254 6.62942911 -21 7 C-19.8125 5.5 -19.8125 5.5 -18 4 C-15.3125 3.8125 -15.3125 3.8125 -13 4 C-13 3.34 -13 2.68 -13 2 C-11.5882217 1.46605821 -10.17029756 0.94834896 -8.75 0.4375 C-7.96109375 0.14746094 -7.1721875 -0.14257812 -6.359375 -0.44140625 C-3.80896548 -1.04522837 -2.44677771 -0.8473932 0 0 Z " fill="#9A641D" transform="translate(123,560)"/>
<path d="M0 0 C-1.65 0.33 -3.3 0.66 -5 1 C-5 1.66 -5 2.32 -5 3 C-7.434964 3.69784331 -9.87227105 4.38353822 -12.3125 5.0625 C-13.00279297 5.26166016 -13.69308594 5.46082031 -14.40429688 5.66601562 C-19.66015625 7.11328125 -19.66015625 7.11328125 -23 6 C-21.75336669 5.49166409 -20.50250613 4.99368855 -19.25 4.5 C-18.55390625 4.2215625 -17.8578125 3.943125 -17.140625 3.65625 C-15 3 -15 3 -11 3 C-11 2.34 -11 1.68 -11 1 C-9.5437328 0.63743142 -8.08488815 0.28520207 -6.625 -0.0625 C-5.81289062 -0.25972656 -5.00078125 -0.45695312 -4.1640625 -0.66015625 C-2 -1 -2 -1 0 0 Z " fill="#5A3E1C" transform="translate(260,511)"/>
<path d="M0 0 C-1.22220737 0.67934107 -2.45318451 1.34291523 -3.6875 2 C-4.37199219 2.37125 -5.05648437 2.7425 -5.76171875 3.125 C-8 4 -8 4 -13 4 C-13 7.3 -13 10.6 -13 14 C-13.33 14 -13.66 14 -14 14 C-14.05391993 12.20866022 -14.09275571 10.41686101 -14.125 8.625 C-14.14820312 7.62726562 -14.17140625 6.62953125 -14.1953125 5.6015625 C-14 3 -14 3 -12 1 C-9.6875 0.33203125 -9.6875 0.33203125 -7 -0.1875 C-6.113125 -0.36667969 -5.22625 -0.54585937 -4.3125 -0.73046875 C-2 -1 -2 -1 0 0 Z " fill="#65441F" transform="translate(95,569)"/>
<path d="M0 0 C3.96 0.33 7.92 0.66 12 1 C12 1.66 12 2.32 12 3 C14.31 3.66 16.62 4.32 19 5 C15.7169902 6.6415049 12.57454967 5.51888624 9 5 C9 4.34 9 3.68 9 3 C4.545 2.01 4.545 2.01 0 1 C0 0.67 0 0.34 0 0 Z " fill="#744F20" transform="translate(513,400)"/>
<path d="M0 0 C1.65 0 3.3 0 5 0 C5 0.66 5 1.32 5 2 C5.80824219 2.03738281 6.61648438 2.07476562 7.44921875 2.11328125 C9.05216797 2.21189453 9.05216797 2.21189453 10.6875 2.3125 C12.27111328 2.39951172 12.27111328 2.39951172 13.88671875 2.48828125 C17.23009964 3.03782064 19.23526262 4.08674018 22 6 C21.67 6.66 21.34 7.32 21 8 C12.585 5.525 12.585 5.525 4 3 C4 2.34 4 1.68 4 1 C2.68 0.67 1.36 0.34 0 0 Z " fill="#66461A" transform="translate(576,269)"/>
<path d="M0 0 C2.76276177 0.52268466 5.3260876 1.10869587 8 2 C8 2.66 8 3.32 8 4 C9.85625 4.1546875 9.85625 4.1546875 11.75 4.3125 C15.78223642 4.6485197 16.39235718 5.29426789 20 8 C16.7 7.67 13.4 7.34 10 7 C10 6.34 10 5.68 10 5 C9.278125 4.9175 8.55625 4.835 7.8125 4.75 C4.44686746 3.85249799 2.58387184 2.2885722 0 0 Z " fill="#8A5C1C" transform="translate(300,156)"/>
<path d="M0 0 C1.32 0 2.64 0 4 0 C4 0.66 4 1.32 4 2 C5.051875 2.12375 6.10375 2.2475 7.1875 2.375 C10.45958771 2.91140782 13.00536076 3.63880035 16 5 C16 5.66 16 6.32 16 7 C16.66 7.33 17.32 7.66 18 8 C16.68 8 15.36 8 14 8 C14 7.34 14 6.68 14 6 C12.948125 5.87625 11.89625 5.7525 10.8125 5.625 C7.54041229 5.08859218 4.99463924 4.36119965 2 3 C2 2.34 2 1.68 2 1 C1.34 0.67 0.68 0.34 0 0 Z " fill="#97641E" transform="translate(433,210)"/>
<path d="M0 0 C6.40140935 0.46555704 11.26769829 2.14711836 17 5 C17 5.66 17 6.32 17 7 C15.51882199 6.71872579 14.04006751 6.42466268 12.5625 6.125 C11.73878906 5.96257812 10.91507812 5.80015625 10.06640625 5.6328125 C9.38449219 5.42398437 8.70257813 5.21515625 8 5 C7.67 4.34 7.34 3.68 7 3 C4.6859378 2.26924352 2.35171131 1.59861742 0 1 C0 0.67 0 0.34 0 0 Z " fill="#A66F1E" transform="translate(328,334)"/>
<path d="M0 0 C5.77378925 0.4811491 9.95859836 2.18467181 15 5 C12.04291642 6.47854179 10.10455315 5.52005822 6.9375 4.75 C5.85339844 4.49734375 4.76929688 4.2446875 3.65234375 3.984375 C2.77707031 3.65953125 1.90179688 3.3346875 1 3 C0.67 2.01 0.34 1.02 0 0 Z " fill="#724E1D" transform="translate(254,309)"/>
<path d="M0 0 C8.57142857 0.85714286 8.57142857 0.85714286 12 3 C12 3.66 12 4.32 12 5 C13.65 5.33 15.3 5.66 17 6 C15 7 15 7 11.5234375 6.00390625 C10.13802064 5.53099953 8.75528453 5.05018356 7.375 4.5625 C6.66859375 4.31951172 5.9621875 4.07652344 5.234375 3.82617188 C3.48726713 3.22412795 1.74332214 2.61291983 0 2 C0 1.34 0 0.68 0 0 Z " fill="#84571C" transform="translate(336,171)"/>
<path d="M0 0 C2.0625 0.4375 2.0625 0.4375 4 1 C0.77700026 2.78540274 -2.36212822 3.70134488 -5.9375 4.5625 C-6.95714844 4.81128906 -7.97679687 5.06007813 -9.02734375 5.31640625 C-11.67769677 5.92588296 -14.33012476 6.48372578 -17 7 C-13.93882432 4.37613513 -13.26826873 4 -9 4 C-9 3.34 -9 2.68 -9 2 C-6.94921875 1.77213542 -4.8984375 1.54427083 -2.84765625 1.31640625 C-0.98859771 1.18113386 -0.98859771 1.18113386 0 0 Z " fill="#8C5C1A" transform="translate(140,552)"/>
<path d="M0 0 C-1.40280696 2.80561393 -3.0509005 3.00680507 -5.9375 4.125 C-6.83339844 4.47820313 -7.72929687 4.83140625 -8.65234375 5.1953125 C-11 6 -11 6 -13 6 C-13 5.34 -13 4.68 -13 4 C-12.01 4 -11.02 4 -10 4 C-10 3.34 -10 2.68 -10 2 C-6.49223216 0.39644899 -3.85645121 -0.22036864 0 0 Z " fill="#A16C1D" transform="translate(466,599)"/>
<path d="M0 0 C-0.33 0.99 -0.66 1.98 -1 3 C-3.71318044 3.88082622 -6.28883517 4.57876229 -9.0625 5.1875 C-9.82111328 5.36474609 -10.57972656 5.54199219 -11.36132812 5.72460938 C-13.23821697 6.16136967 -15.1188016 6.58219156 -17 7 C-16 5 -16 5 -13.34765625 3.96484375 C-11.72150391 3.45630859 -11.72150391 3.45630859 -10.0625 2.9375 C-0.76226415 0 -0.76226415 0 0 0 Z " fill="#382C1D" transform="translate(705,502)"/>
<path d="M0 0 C0.33 0 0.66 0 1 0 C1.0810206 2.10353495 1.13919907 4.20795952 1.1875 6.3125 C1.22230469 7.48425781 1.25710938 8.65601563 1.29296875 9.86328125 C1 13 1 13 -0.26171875 14.91796875 C-2 16 -2 16 -6 16 C-6 15.34 -6 14.68 -6 14 C-4.35 13.34 -2.7 12.68 -1 12 C-0.67 8.04 -0.34 4.08 0 0 Z " fill="#543F21" transform="translate(733,477)"/>
<path d="M0 0 C2.31 0.33 4.62 0.66 7 1 C7 1.66 7 2.32 7 3 C9.64 3.33 12.28 3.66 15 4 C15.33 4.99 15.66 5.98 16 7 C12.30099992 6.11223998 8.65449539 5.05418136 5 4 C5 3.34 5 2.68 5 2 C3.35 1.67 1.7 1.34 0 1 C0 0.67 0 0.34 0 0 Z " fill="#453018" transform="translate(324,165)"/>
<path d="M0 0 C-3.42949404 3.42949404 -6.47356733 4.24791321 -11.25 4.625 C-12.14203125 4.69976562 -13.0340625 4.77453125 -13.953125 4.8515625 C-14.62859375 4.90054687 -15.3040625 4.94953125 -16 5 C-15.67 4.34 -15.34 3.68 -15 3 C-12.68529088 2.27129528 -10.3494053 1.60760482 -8 1 C-5.07175348 0.02391783 -3.04386724 -0.08226668 0 0 Z " fill="#77511E" transform="translate(537,415)"/>
<path d="M0 0 C2.875 -0.125 2.875 -0.125 6 0 C6.66 0.66 7.32 1.32 8 2 C9.98821313 2.39764263 11.98944339 2.73775349 14 3 C14 3.66 14 4.32 14 5 C14.66 5.33 15.32 5.66 16 6 C11.28974573 5.54709094 8.664226 4.9313808 5 2 C2.35065178 1.28566879 2.35065178 1.28566879 0 1 C0 0.67 0 0.34 0 0 Z " fill="#A87123" transform="translate(497,393)"/>
<path d="M0 0 C6.75 0.875 6.75 0.875 9 2 C9 2.66 9 3.32 9 4 C10.65 4.33 12.3 4.66 14 5 C11.45297384 6.27351308 10.5717055 5.80191925 7.875 5.0625 C7.15054688 4.86785156 6.42609375 4.67320313 5.6796875 4.47265625 C5.12539062 4.31667969 4.57109375 4.16070312 4 4 C4 3.34 4 2.68 4 2 C2.68 1.34 1.36 0.68 0 0 Z " fill="#774E1B" transform="translate(167,102)"/>
<path d="M0 0 C0.66 0.33 1.32 0.66 2 1 C0.21825212 3.30142435 -1.16304165 4.80034391 -4.046875 5.48828125 C-6.0246611 5.72323102 -8.01271872 5.86751458 -10 6 C-7.31100548 2.67830089 -3.94687492 1.43522725 0 0 Z " fill="#453319" transform="translate(575,554)"/>
<path d="M0 0 C-4.21683811 2.8990762 -8.06866002 3.91343356 -13 5 C-11.28158532 2.13597554 -10.15883902 1.07097062 -7.0625 -0.3125 C-4.12938515 -0.97095435 -2.7534603 -1.05902319 0 0 Z " fill="#96621D" transform="translate(505,427)"/>
<path d="M0 0 C2.97 0.33 5.94 0.66 9 1 C9.33 1.99 9.66 2.98 10 4 C10.99 4.33 11.98 4.66 13 5 C11.02 5 9.04 5 7 5 C7 4.34 7 3.68 7 3 C4.69 2.34 2.38 1.68 0 1 C0 0.67 0 0.34 0 0 Z " fill="#775221" transform="translate(444,375)"/>
<path d="M0 0 C-4.84060277 3.06242216 -8.29290936 4.53411505 -14 5 C-13.34 4.34 -12.68 3.68 -12 3 C-11.01 3 -10.02 3 -9 3 C-9 2.34 -9 1.68 -9 1 C-3.375 -1.125 -3.375 -1.125 0 0 Z " fill="#B17720" transform="translate(586,550)"/>
<path d="M0 0 C10.55808656 1.74259681 10.55808656 1.74259681 15 5 C12.3333581 6.33332095 10.83319697 5.67102033 8 5 C8 4.34 8 3.68 8 3 C6.865625 2.87625 5.73125 2.7525 4.5625 2.625 C3.386875 2.41875 2.21125 2.2125 1 2 C0.67 1.34 0.34 0.68 0 0 Z " fill="#6C4B1E" transform="translate(386,355)"/>
<path d="M0 0 C4.71403788 0.47939368 8.66579301 0.96834048 13 3 C12.67 3.66 12.34 4.32 12 5 C7.545 4.01 7.545 4.01 3 3 C3 2.34 3 1.68 3 1 C2.01 0.67 1.02 0.34 0 0 Z " fill="#533A18" transform="translate(613,283)"/>
<path d="M0 0 C1.32 0 2.64 0 4 0 C4 0.66 4 1.32 4 2 C5.11375 2.185625 5.11375 2.185625 6.25 2.375 C8.80141485 2.95486701 10.7267573 3.73708739 13 5 C11 6 11 6 8.65234375 5.29296875 C7.30849609 4.74576172 7.30849609 4.74576172 5.9375 4.1875 C5.03902344 3.83042969 4.14054687 3.47335938 3.21484375 3.10546875 C1 2 1 2 0 0 Z " fill="#5A3D19" transform="translate(420,204)"/>
<path d="M0 0 C-2.85584773 1.90389849 -4.9311762 2.69462177 -8.1875 3.625 C-9.08855469 3.88539063 -9.98960937 4.14578125 -10.91796875 4.4140625 C-11.94857422 4.70410156 -11.94857422 4.70410156 -13 5 C-8.78719294 0.58658309 -6.11997997 -0.23094264 0 0 Z " fill="#754F1F" transform="translate(402,627)"/>
<path d="M0 0 C3.91593446 0.78318689 7.36406635 2.39179858 11 4 C11 4.33 11 4.66 11 5 C9.35 5 7.7 5 6 5 C6 4.34 6 3.68 6 3 C4.35 3 2.7 3 1 3 C0.67 2.01 0.34 1.02 0 0 Z " fill="#A76D1D" transform="translate(622,287)"/>
<path d="M0 0 C-4.22949995 2.41685712 -7.12335991 3.34833144 -12 3 C-8.52582963 0.68388642 -4.04642977 -2.02321489 0 0 Z " fill="#805418" transform="translate(327,488)"/>
<path d="M0 0 C6.4 0.49230769 6.4 0.49230769 9.4375 3.0625 C10.2109375 4.0215625 10.2109375 4.0215625 11 5 C9.35 5 7.7 5 6 5 C5.67 4.01 5.34 3.02 5 2 C3.35 1.67 1.7 1.34 0 1 C0 0.67 0 0.34 0 0 Z " fill="#553C1F" transform="translate(495,393)"/>
<path d="M0 0 C-2.3129482 2.3129482 -3.47904875 2.49580975 -6.625 3.125 C-7.44226563 3.29257812 -8.25953125 3.46015625 -9.1015625 3.6328125 C-10.04128906 3.81457031 -10.04128906 3.81457031 -11 4 C-8.14317358 -0.28523962 -4.97227354 -1.84158279 0 0 Z " fill="#94611C" transform="translate(464,441)"/>
<path d="M0 0 C2.64 0 5.28 0 8 0 C8.33 0.66 8.66 1.32 9 2 C9.99 2.66 10.98 3.32 12 4 C9.69 3.67 7.38 3.34 5 3 C5 2.34 5 1.68 5 1 C3.35 1 1.7 1 0 1 C0 0.67 0 0.34 0 0 Z " fill="#93631E" transform="translate(345,341)"/>
<path d="M0 0 C4.12751449 0.60698743 7.3321148 2.03810791 11 4 C10.67 4.66 10.34 5.32 10 6 C8.68 5.67 7.36 5.34 6 5 C6 4.34 6 3.68 6 3 C4.02 2.34 2.04 1.68 0 1 C0 0.67 0 0.34 0 0 Z " fill="#63461A" transform="translate(565,263)"/>
<path d="M0 0 C1.44010481 0.25662245 2.8770687 0.53090821 4.3125 0.8125 C5.11300781 0.96332031 5.91351563 1.11414063 6.73828125 1.26953125 C9.23445587 2.07572236 10.32422106 3.02052002 12 5 C10.35 5 8.7 5 7 5 C7 4.34 7 3.68 7 3 C6.030625 2.87625 5.06125 2.7525 4.0625 2.625 C3.051875 2.41875 2.04125 2.2125 1 2 C0.67 1.34 0.34 0.68 0 0 Z " fill="#AB711E" transform="translate(355,179)"/>
<path d="M0 0 C6.52307692 0.61538462 6.52307692 0.61538462 8.9375 2.5625 C9.288125 3.036875 9.63875 3.51125 10 4 C8.35 4 6.7 4 5 4 C5 3.34 5 2.68 5 2 C3.35 1.67 1.7 1.34 0 1 C0 0.67 0 0.34 0 0 Z " fill="#684822" transform="translate(104,257)"/>
<path d="M0 0 C2.97 0.33 5.94 0.66 9 1 C9.33 1.99 9.66 2.98 10 4 C6.44219804 3.39009109 3.3171411 2.4216319 0 1 C0 0.67 0 0.34 0 0 Z " fill="#68461A" transform="translate(388,192)"/>
<path d="M0 0 C3.35433109 0.94933899 6.69246505 1.89748835 10 3 C10 3.66 10 4.32 10 5 C7.03 4.505 7.03 4.505 4 4 C4 3.34 4 2.68 4 2 C2.68 2 1.36 2 0 2 C0 1.34 0 0.68 0 0 Z " fill="#B0751F" transform="translate(235,130)"/>
</svg>
